<?xml version="1.0" encoding="utf-8"?>
<!-- Svg Vector Icons : http://www.onlinewebfonts.com/icon -->
<!DOCTYPE svg PUBLIC "-//W3C//DTD SVG 1.1//EN" "http://www.w3.org/Graphics/SVG/1.1/DTD/svg11.dtd">
<svg version="1.1" xmlns="http://www.w3.org/2000/svg" xmlns:xlink="http://www.w3.org/1999/xlink" x="0px" y="0px" viewBox="0 0 1000 1000" enable-background="new 0 0 1000 1000" xml:space="preserve">
<metadata> Svg Vector Icons : http://www.onlinewebfonts.com/icon </metadata>
<g><path d="M856.3,797.9c0,0.5,0.2,1,0.2,1.6c0,38.7,19.9,102.7,32.6,124.6h-0.1c1,2.3,1.6,4.9,1.6,7.7c0,10.9-8.8,19.6-19.6,19.6c-1.6,0-4.2-0.3-5.1-0.3c-0.3,0-0.4,0-0.3,0.1c-67.5-11-150.5-90.1-165.3-108.1c-15.2,2.2-25.4,2.6-38.1,2.6c-5.4,0-11.1-0.1-17.9-0.1c-124.7,0-224.1-46.8-284.8-121.1c2.2-1.9,101.8-2,87.5-1.1c52.6,41.1,114.2,61,197.3,61c0,0,34.4,0,47.2-1.9l32.2-5c0,0,20.5,36.5,80.2,80.3c-4.7-19.8-7.9-98.3-7.9-98.3l30.5-15.1c71.5-36.6,102.2-84.5,102.2-150.5c0-53.9-14.9-91-67.2-127.1c6.8-20.8,13.1-44.5,15.1-66.5C957.6,447.7,990,511,990,593.9C990,683.1,947.7,751.2,856.3,797.9L856.3,797.9z M416.6,660c-7.9,0-14.5,0.1-20.7,0.1c-14.7,0-26.5-0.4-44.1-3c-17.1,20.8-132.4,108.7-210.5,121.5c0-0.1-0.1-0.1-0.4-0.1c-1.1,0-4.1,0.4-6,0.4c-12.5,0-22.7-10.1-22.7-22.6c0-3.2,0.7-6.2,1.8-8.9h-0.1c14.7-25.3,52-86.8,52-131.7c0-0.7,0.2-1.2,0.2-1.8C60.6,559.9,10,449.9,10,346.7c0-165.6,179-298,399.9-298c220.9,0,396.1,132.4,396.1,298C808.6,533.9,637.5,660,416.6,660L416.6,660z M409.9,109.9c-186.8,0-338.7,105.2-338.7,236.8c0,79.1,38.1,169.3,122.9,212.7l33.4,17l-2.9,37.4c0,0,0.9,18.7-19.8,77.7c34-21.4,73.5-54.4,82.6-64.9l39.2-32.5l34.1,2.4c29.3,4.3,57.8,3.2,57.8,3.2c186.8,0,325.7-107.1,326.3-253.1C744.8,215.1,596.7,109.9,409.9,109.9L409.9,109.9z"/><path d="M204.1,358.3c0,22.7,18.4,41.2,41.2,41.2c22.7,0,41.2-18.4,41.2-41.2c0-22.7-18.4-41.2-41.2-41.2C222.5,317.1,204.1,335.5,204.1,358.3L204.1,358.3z"/><path d="M377.4,358.3c0,22.7,18.4,41.2,41.2,41.2c22.7,0,41.2-18.4,41.2-41.2c0-22.7-18.4-41.2-41.2-41.2C395.8,317.1,377.4,335.5,377.4,358.3z"/><path d="M550.7,358.3c0,22.7,18.4,41.2,41.2,41.2c22.7,0,41.2-18.4,41.2-41.2c0-22.7-18.4-41.2-41.2-41.2C569.1,317.1,550.7,335.5,550.7,358.3L550.7,358.3z"/></g>
</svg>