<svg width="91" height="91" viewBox="0 0 91 91" fill="none" xmlns="http://www.w3.org/2000/svg">
<rect x="20.3058" y="16.5454" width="50.3884" height="63.9256" rx="10" fill="white"/>
<path d="M31.85 34.125C31.85 33.5216 32.0897 32.943 32.5163 32.5163C32.943 32.0897 33.5216 31.85 34.125 31.85H56.875C57.4784 31.85 58.057 32.0897 58.4837 32.5163C58.9103 32.943 59.15 33.5216 59.15 34.125C59.15 34.7284 58.9103 35.307 58.4837 35.7337C58.057 36.1603 57.4784 36.4 56.875 36.4H34.125C33.5216 36.4 32.943 36.1603 32.5163 35.7337C32.0897 35.307 31.85 34.7284 31.85 34.125ZM34.125 45.5C33.5216 45.5 32.943 45.7397 32.5163 46.1663C32.0897 46.593 31.85 47.1716 31.85 47.775C31.85 48.3784 32.0897 48.957 32.5163 49.3837C32.943 49.8103 33.5216 50.05 34.125 50.05H56.875C57.4784 50.05 58.057 49.8103 58.4837 49.3837C58.9103 48.957 59.15 48.3784 59.15 47.775C59.15 47.1716 58.9103 46.593 58.4837 46.1663C58.057 45.7397 57.4784 45.5 56.875 45.5H34.125ZM31.85 61.425C31.85 60.8216 32.0897 60.243 32.5163 59.8163C32.943 59.3897 33.5216 59.15 34.125 59.15H43.225C43.8284 59.15 44.407 59.3897 44.8337 59.8163C45.2603 60.243 45.5 60.8216 45.5 61.425C45.5 62.0284 45.2603 62.607 44.8337 63.0337C44.407 63.4603 43.8284 63.7 43.225 63.7H34.125C33.5216 63.7 32.943 63.4603 32.5163 63.0337C32.0897 62.607 31.85 62.0284 31.85 61.425ZM27.3 11.375C27.3 10.7716 27.5397 10.193 27.9663 9.76634C28.393 9.33969 28.9716 9.10001 29.575 9.10001C30.1784 9.10001 30.757 9.33969 31.1837 9.76634C31.6103 10.193 31.85 10.7716 31.85 11.375V13.65H43.225V11.375C43.225 10.7716 43.4647 10.193 43.8913 9.76634C44.318 9.33969 44.8966 9.10001 45.5 9.10001C46.1034 9.10001 46.682 9.33969 47.1087 9.76634C47.5353 10.193 47.775 10.7716 47.775 11.375V13.65H59.15V11.375C59.15 10.7716 59.3897 10.193 59.8163 9.76634C60.243 9.33969 60.8216 9.10001 61.425 9.10001C62.0284 9.10001 62.607 9.33969 63.0337 9.76634C63.4603 10.193 63.7 10.7716 63.7 11.375V13.65H65.975C67.7851 13.65 69.5211 14.3691 70.801 15.649C72.0809 16.9289 72.8 18.6649 72.8 20.475V42.0056C71.3167 42.6426 69.9244 43.5617 68.7141 44.7766L68.25 45.2407V20.475C68.25 19.8716 68.0103 19.293 67.5837 18.8663C67.157 18.4397 66.5784 18.2 65.975 18.2H25.025C24.4216 18.2 23.843 18.4397 23.4163 18.8663C22.9897 19.293 22.75 19.8716 22.75 20.475V75.075C22.75 75.6784 22.9897 76.257 23.4163 76.6837C23.843 77.1103 24.4216 77.35 25.025 77.35H41.951L41.2093 80.3212C41.0798 80.8389 40.9975 81.3674 40.9636 81.9H25.025C23.2149 81.9 21.4789 81.1809 20.199 79.901C18.9191 78.6211 18.2 76.8851 18.2 75.075V20.475C18.2 18.6649 18.9191 16.9289 20.199 15.649C21.4789 14.3691 23.2149 13.65 25.025 13.65H27.3V11.375ZM71.9355 47.9934L49.959 69.9699C48.6782 71.2501 47.7692 72.8543 47.3291 74.6109L45.6228 81.4268C45.4546 82.1047 45.4645 82.8146 45.6517 83.4875C45.8388 84.1604 46.1969 84.7735 46.691 85.2671C47.1851 85.7608 47.7985 86.1183 48.4716 86.3048C49.1447 86.4913 49.8546 86.5006 50.5323 86.3317L57.3482 84.63C59.1051 84.1906 60.7094 83.2815 61.9892 82.0001L83.9657 60.0236C85.5406 58.4235 86.4193 56.2657 86.4102 54.0206C86.401 51.7754 85.5049 49.6248 83.917 48.0376C82.3291 46.4503 80.1782 45.5549 77.9331 45.5467C75.6879 45.5384 73.5305 46.4179 71.9309 47.9934H71.9355Z" fill="black"/>
</svg>
