<svg width="102" height="102" viewBox="0 0 102 102" fill="none" xmlns="http://www.w3.org/2000/svg">
<rect x="18.0968" y="14.8065" width="65.8064" height="13.1613" fill="white"/>
<rect x="13.9839" y="31.2581" width="73.2097" height="59.2258" fill="white"/>
<path d="M83.6221 34.2656H18.3779C18.348 34.2656 18.3281 34.2855 18.3281 34.3154V43.3998C18.3281 49.3564 23.209 54.1875 29.2154 54.1875C33.2695 54.1875 36.8057 51.9961 38.6883 48.7389C38.9771 48.2309 39.525 47.9121 40.1127 47.9121C40.7004 47.9121 41.2383 48.2309 41.5371 48.7389C43.4098 51.9961 46.9459 54.1875 51 54.1875C55.0641 54.1875 58.6102 51.9861 60.4729 48.7189C60.7617 48.2209 61.2896 47.9121 61.8574 47.9121H61.9172C62.4949 47.9121 63.0129 48.2209 63.3018 48.7189C65.1744 51.9861 68.7205 54.1875 72.7846 54.1875C78.791 54.1875 83.6719 49.3564 83.6719 43.3998V34.3154C83.6719 34.2855 83.652 34.2656 83.6221 34.2656Z" fill="#FE0505"/>
<path d="M87.8555 27.1037V14.3438C87.8555 12.5807 86.4311 11.1562 84.668 11.1562H17.332C15.5689 11.1562 14.1445 12.5807 14.1445 14.3438V27.1037C12.4811 27.2033 11.1563 28.5879 11.1563 30.2812V43.3998C11.1499 45.8108 11.6381 48.1975 12.5906 50.4123C13.0189 51.4283 13.5469 52.3846 14.1445 53.291V87.6562C14.1445 89.4094 15.5689 90.8438 17.332 90.8438H84.668C86.4311 90.8438 87.8555 89.4193 87.8555 87.6562V53.291C88.4625 52.3823 88.9828 51.4185 89.4094 50.4123C90.3557 48.191 90.8438 45.8303 90.8438 43.3998V30.2812C90.8438 28.5879 89.5189 27.2033 87.8555 27.1037ZM21.3164 18.3281H80.6836V27.0938H21.3164V18.3281ZM57.375 83.6818H44.625V73.3125H57.375V83.6818ZM80.7234 83.6818H63.75V70.125C63.75 68.3619 62.3256 66.9375 60.5625 66.9375H41.4375C39.6744 66.9375 38.25 68.3619 38.25 70.125V83.6818H21.3164V59.5564C21.6053 59.6959 21.9041 59.8354 22.2129 59.9549C24.4342 60.8912 26.7949 61.3594 29.2254 61.3594C31.6559 61.3594 34.0066 60.8912 36.2379 59.9549C37.6125 59.3772 38.9074 58.64 40.0928 57.7535C40.1127 57.7436 40.1326 57.7436 40.1525 57.7535C41.3416 58.6438 42.6364 59.3832 44.0074 59.9549C46.2287 60.8912 48.5895 61.3594 51.0199 61.3594C53.4504 61.3594 55.8012 60.8912 58.0324 59.9549C59.407 59.3772 60.702 58.64 61.8873 57.7535C61.9072 57.7436 61.9272 57.7436 61.9471 57.7535C63.1361 58.6438 64.4309 59.3832 65.8019 59.9549C68.0232 60.8912 70.384 61.3594 72.8145 61.3594C75.2449 61.3594 77.5957 60.8912 79.827 59.9549C80.1258 59.8254 80.4246 59.6959 80.7234 59.5564V83.6818ZM83.6719 43.3998C83.6719 49.3564 78.791 54.1875 72.7846 54.1875C68.7205 54.1875 65.1744 51.9861 63.3018 48.7189C63.0129 48.2209 62.4949 47.9121 61.9172 47.9121H61.8574C61.2896 47.9121 60.7617 48.2209 60.4728 48.7189C59.5172 50.3856 58.1373 51.7695 56.4735 52.73C54.8097 53.6905 52.9212 54.1934 51 54.1875C46.9459 54.1875 43.4098 51.9961 41.5371 48.7389C41.2383 48.2309 40.7004 47.9121 40.1127 47.9121C39.525 47.9121 38.9771 48.2309 38.6883 48.7389C37.7271 50.3991 36.3454 51.7768 34.6824 52.7334C33.0195 53.6899 31.1339 54.1914 29.2154 54.1875C23.209 54.1875 18.3281 49.3564 18.3281 43.3998V34.3154C18.3281 34.2855 18.348 34.2656 18.3779 34.2656H83.6221C83.652 34.2656 83.6719 34.2855 83.6719 34.3154V43.3998Z" fill="#161616"/>
</svg>
