<?xml version="1.0" encoding="UTF-8"?><svg xmlns="http://www.w3.org/2000/svg" viewBox="0 0 191.42 55.56"><defs><style>.d,.e{fill:#fff;}.f,.g{fill:#231815;}.e{stroke-width:1.57px;}.e,.h,.g{stroke:#231815;stroke-miterlimit:10;}.h{fill:none;stroke-width:.79px;}.g{stroke-width:3px;}</style></defs><g id="a"/><g id="b"><g id="c"><g><path class="g" d="M63.53,23.48v18.21c.8,6.95,6.18,9.32,10.51,9.32,3.5-.03,6.19-1.72,7.99-5.21v2.68c.06,1.45,1.53,2.21,3.41,2.25,2,.02,3.61-1,3.52-2.25V23.48c0-1.38-1.81-2.25-3.46-2.25-1.97-.04-3.41,.94-3.46,2.25v15.79c-.7,4.65-2.61,5.55-6.2,5.73-3.17,.05-4.72-1.48-5.14-4.13-.12-1-.2-2.01-.22-3.06v-14.33c-.07-1.59-1.65-2.22-3.52-2.25-1.65,0-3.41,.63-3.41,2.25Z"/><path class="d" d="M63.53,23.48v18.21c.8,6.95,6.18,9.32,10.51,9.32,3.5-.03,6.19-1.72,7.99-5.21v2.68c.06,1.45,1.53,2.21,3.41,2.25,2,.02,3.61-1,3.52-2.25V23.48c0-1.38-1.81-2.25-3.46-2.25-1.97-.04-3.41,.94-3.46,2.25v15.79c-.7,4.65-2.61,5.55-6.2,5.73-3.17,.05-4.72-1.48-5.14-4.13-.12-1-.2-2.01-.22-3.06v-14.33c-.07-1.59-1.65-2.22-3.52-2.25-1.65,0-3.41,.63-3.41,2.25Z"/></g><g><g><path class="g" d="M94.75,26.25v22.14c0,1.45,1.53,2.68,3.3,2.62,1.88,0,3.22-1.15,3.3-2.62V26.25c.06-1.88-1.37-2.89-3.3-2.92-1.78,0-3.42,1.1-3.3,2.92Z"/><path class="g" d="M98.3,21.08c-2.18-.05-3.56-1.52-3.56-3.42-.09-1.79,1.55-3.5,3.56-3.42,2.14,0,3.56,1.55,3.56,3.42-.05,2.21-1.72,3.42-3.56,3.42Z"/></g><g><path class="d" d="M94.75,26.25v22.14c0,1.45,1.53,2.68,3.3,2.62,1.88,0,3.22-1.15,3.3-2.62V26.25c.06-1.88-1.37-2.89-3.3-2.92-1.78,0-3.42,1.1-3.3,2.92Z"/><path class="d" d="M98.3,21.08c-2.18-.05-3.56-1.52-3.56-3.42-.09-1.79,1.55-3.5,3.56-3.42,2.14,0,3.56,1.55,3.56,3.42-.05,2.21-1.72,3.42-3.56,3.42Z"/></g></g><g><path class="g" d="M119.94,27.92c1.97-.13,3.64,.93,4.98,2.52,.76,1.03,2.27,1.15,3.46,.4,.68-.49,1.15-1.08,1.23-1.86,.13-1.44-.45-2.66-1.49-3.72-2.31-1.91-5.05-2.91-8.28-2.92-5.95-.21-11.2,3.75-12.7,9-1.19,3.6-1.17,7.37,.03,11.32,1.45,3.94,3.89,6.18,6.97,7.34,3.69,1.41,8.83,1.28,11.94-.08,2.79-1.12,4.44-3.68,4.09-4.98,0-.67-2.16-2.78-4.09-2.11-.42,.11-.95,.44-1.52,.84-1.15,1.02-2.15,1.56-3.01,1.65-5.4,.87-8.72-3.33-8.67-8.45-.01-5.22,2.87-8.97,7.07-8.95Z"/><path class="d" d="M119.94,27.92c1.97-.13,3.64,.93,4.98,2.52,.76,1.03,2.27,1.15,3.46,.4,.68-.49,1.15-1.08,1.23-1.86,.13-1.44-.45-2.66-1.49-3.72-2.31-1.91-5.05-2.91-8.28-2.92-5.95-.21-11.2,3.75-12.7,9-1.19,3.6-1.17,7.37,.03,11.32,1.45,3.94,3.89,6.18,6.97,7.34,3.69,1.41,8.83,1.28,11.94-.08,2.79-1.12,4.44-3.68,4.09-4.98,0-.67-2.16-2.78-4.09-2.11-.42,.11-.95,.44-1.52,.84-1.15,1.02-2.15,1.56-3.01,1.65-5.4,.87-8.72-3.33-8.67-8.45-.01-5.22,2.87-8.97,7.07-8.95Z"/></g><g><path class="g" d="M134.73,13.63V48.19c0,1.28,1.59,2.11,3.25,2.11,1.49,0,3.17-.68,3.25-2.11v-14.24c0-2.11,.39-3.61,1.42-4.82,.83-.98,2.13-1.37,4.4-1.42,2.81-.09,4.47,1.17,4.82,3.65,.4,2.84,.1,9.12,.21,16.83,.05,1.3,1.33,2.11,3.3,2.11,1.71,0,3.2-.74,3.2-2.11V31.74c0-5.13-2.66-7.79-6.02-9-5.1-1.52-9.08-.25-11.32,3.97V13.63c.03-1.1-1.13-2.11-3.2-2.11-1.77,0-3.28,.8-3.3,2.11Z"/><path class="d" d="M134.73,13.63V48.19c0,1.28,1.59,2.11,3.25,2.11,1.49,0,3.17-.68,3.25-2.11v-14.24c0-2.11,.39-3.61,1.42-4.82,.83-.98,2.13-1.37,4.4-1.42,2.81-.09,4.47,1.17,4.82,3.65,.4,2.84,.1,9.12,.21,16.83,.05,1.3,1.33,2.11,3.3,2.11,1.71,0,3.2-.74,3.2-2.11V31.74c0-5.13-2.66-7.79-6.02-9-5.1-1.52-9.08-.25-11.32,3.97V13.63c.03-1.1-1.13-2.11-3.2-2.11-1.77,0-3.28,.8-3.3,2.11Z"/></g><g><path class="g" d="M188.58,22.99c-.6-.33-1.26-.46-2.03-.48-.9,0-1.64,.18-2.2,.58-.68,.56-1.17,1.27-1.18,2.03v2.11c-1.28-3.19-3.6-5.17-7.56-5.23-8.73,.15-11.84,6.42-11.84,14.49,.19,8.13,3.71,13.68,11.79,13.93,4.41,0,6.52-2.12,7.5-4.48-.06,2.1-.11,3.08,1.71,3.92,1.13,.3,3.42,.55,4.47-.68,.42-.49,.62-1.06,.67-1.69V25.13c0-.87-.68-1.65-1.35-2.13Zm-5.76,17.47c-.87,3.34-2.94,4.77-5.97,4.63-1.87-.1-3.33-.79-4.42-2.01-1.62-2.01-2.02-5.13-1.64-9.28,.33-2.95,2.1-5.95,5.68-6.21,2.28-.1,3.83,.68,4.75,1.84,1.84,2.21,2.56,6.78,1.61,11.03Z"/><path class="d" d="M188.58,22.99c-.6-.33-1.26-.46-2.03-.48-.9,0-1.64,.18-2.2,.58-.68,.56-1.17,1.27-1.18,2.03v2.11c-1.28-3.19-3.6-5.17-7.56-5.23-8.73,.15-11.84,6.42-11.84,14.49,.19,8.13,3.71,13.68,11.79,13.93,4.41,0,6.52-2.12,7.5-4.48-.06,2.1-.11,3.08,1.71,3.92,1.13,.3,3.42,.55,4.47-.68,.42-.49,.62-1.06,.67-1.69V25.13c0-.87-.68-1.65-1.35-2.13Zm-5.76,17.47c-.87,3.34-2.94,4.77-5.97,4.63-1.87-.1-3.33-.79-4.42-2.01-1.62-2.01-2.02-5.13-1.64-9.28,.33-2.95,2.1-5.95,5.68-6.21,2.28-.1,3.83,.68,4.75,1.84,1.84,2.21,2.56,6.78,1.61,11.03Z"/></g><g><path class="e" d="M55.52,40.71c1.91-3.37,2.98-7.17,2.98-11.19,0-13.95-12.92-25.25-28.86-25.25S.79,15.57,.79,29.52s12.92,25.25,28.86,25.25c4.87,0,9.47-1.06,13.49-2.93l13.62,1.36-2.88-9.78,1.64-2.71Zm-12.1-4.53c-.15,.26-.24,.44-.41,.69-7.58-4.84-10.14,.27-5.65,5.26-2.54,1.69-4.3,1.87-7.71,1.87-8.37,0-15.16-6.03-15.16-13.46s6.79-13.46,15.16-13.46,15.16,6.03,15.16,13.46c0,2.26-.27,3.77-1.38,5.64Z"/><ellipse class="e" cx="12.21" cy="16.36" rx="6.46" ry="9.96"/><ellipse class="f" cx="10.09" cy="16.36" rx="3.8" ry="4.69"/><ellipse class="e" cx="26.68" cy="15.5" rx="6.46" ry="9.96"/><ellipse class="f" cx="24.56" cy="15.5" rx="3.8" ry="4.69"/><path class="h" d="M6.94,4.98c1.91-3.24,3.92-3.65,6.05-.73"/><path class="h" d="M22.63,3.09c1.91-3.24,3.92-3.65,6.05-.73"/></g></g></g></svg>