<?xml version="1.0" encoding="UTF-8"?><svg id="a" xmlns="http://www.w3.org/2000/svg" viewBox="0 0 377.26 353.51"><path d="M353.29,259.01c12.14-21.46,18.97-45.62,18.97-71.18,0-88.74-82.21-160.68-183.63-160.68S5,99.09,5,187.83s82.21,160.68,183.63,160.68c31.02,0,60.23-6.74,85.85-18.62l86.67,8.63-18.31-62.24,10.44-17.27Zm-76.99-28.81c-.98,1.64-1.52,2.79-2.61,4.37-48.24-30.78-64.51,1.72-35.97,33.48-16.13,10.78-27.34,11.91-49.09,11.91-53.27,0-96.45-38.34-96.45-85.64s43.18-85.64,96.45-85.64,96.45,38.34,96.45,85.64c0,14.41-1.69,23.96-8.77,35.87Z" fill="#fff" stroke="#231815" stroke-miterlimit="10" stroke-width="10"/><ellipse cx="77.7" cy="104.1" rx="41.08" ry="63.41" fill="#fff" stroke="#231815" stroke-miterlimit="10" stroke-width="10"/><ellipse cx="64.18" cy="104.1" rx="24.16" ry="29.82" fill="#231815"/><ellipse cx="169.78" cy="98.6" rx="41.08" ry="63.41" fill="#fff" stroke="#231815" stroke-miterlimit="10" stroke-width="10"/><ellipse cx="156.25" cy="98.6" rx="24.16" ry="29.82" fill="#231815"/><path d="M44.13,31.71c12.14-20.61,24.93-23.25,38.5-4.64" fill="none" stroke="#231815" stroke-miterlimit="10" stroke-width="5"/><path d="M143.99,19.65c12.14-20.61,24.93-23.25,38.5-4.64" fill="none" stroke="#231815" stroke-miterlimit="10" stroke-width="5"/></svg>