<?xml version="1.0" encoding="UTF-8"?><svg id="a" xmlns="http://www.w3.org/2000/svg" viewBox="0 0 256.61 74.3"><g><path d="M85.15,31.43v24.49c1.08,9.35,8.31,12.53,14.13,12.53,4.71-.04,8.32-2.32,10.75-7v3.61c.08,1.95,2.05,2.97,4.58,3.03,2.69,.03,4.86-1.35,4.73-3.03V31.43c0-1.86-2.43-3.03-4.66-3.03-2.64-.06-4.59,1.27-4.66,3.03v21.23c-.95,6.26-3.51,7.46-8.34,7.7-4.26,.07-6.35-1.99-6.91-5.56-.16-1.34-.26-2.71-.3-4.11V31.43c-.09-2.13-2.21-2.98-4.73-3.03-2.23,0-4.58,.85-4.58,3.03Z" fill="#231815" stroke="#231815" stroke-miterlimit="10" stroke-width="3"/><path d="M85.15,31.43v24.49c1.08,9.35,8.31,12.53,14.13,12.53,4.71-.04,8.32-2.32,10.75-7v3.61c.08,1.95,2.05,2.97,4.58,3.03,2.69,.03,4.86-1.35,4.73-3.03V31.43c0-1.86-2.43-3.03-4.66-3.03-2.64-.06-4.59,1.27-4.66,3.03v21.23c-.95,6.26-3.51,7.46-8.34,7.7-4.26,.07-6.35-1.99-6.91-5.56-.16-1.34-.26-2.71-.3-4.11V31.43c-.09-2.13-2.21-2.98-4.73-3.03-2.23,0-4.58,.85-4.58,3.03Z" fill="#fff"/></g><g><g><path d="M127.13,35.17v29.76c0,1.96,2.06,3.6,4.44,3.52,2.53,0,4.33-1.55,4.44-3.52v-29.76c.08-2.53-1.84-3.88-4.44-3.92-2.39,0-4.6,1.48-4.44,3.92Z" fill="#231815" stroke="#231815" stroke-miterlimit="10" stroke-width="3"/><path d="M131.92,28.21c-2.93-.07-4.79-2.05-4.79-4.6-.12-2.41,2.08-4.7,4.79-4.6,2.87,0,4.79,2.09,4.79,4.6-.07,2.97-2.32,4.6-4.79,4.6Z" fill="#231815" stroke="#231815" stroke-miterlimit="10" stroke-width="3"/></g><g><path d="M127.13,35.17v29.76c0,1.96,2.06,3.6,4.44,3.52,2.53,0,4.33-1.55,4.44-3.52v-29.76c.08-2.53-1.84-3.88-4.44-3.92-2.39,0-4.6,1.48-4.44,3.92Z" fill="#fff"/><path d="M131.92,28.21c-2.93-.07-4.79-2.05-4.79-4.6-.12-2.41,2.08-4.7,4.79-4.6,2.87,0,4.79,2.09,4.79,4.6-.07,2.97-2.32,4.6-4.79,4.6Z" fill="#fff"/></g></g><g><path d="M161.01,37.41c2.64-.18,4.89,1.25,6.69,3.38,1.02,1.38,3.05,1.54,4.65,.54,.91-.66,1.55-1.45,1.65-2.5,.17-1.93-.6-3.57-2.01-5.01-3.1-2.57-6.8-3.91-11.13-3.92-8-.28-15.06,5.05-17.08,12.11-1.6,4.84-1.58,9.92,.04,15.22,1.95,5.3,5.23,8.31,9.37,9.88,4.96,1.9,11.87,1.72,16.06-.1,3.75-1.51,5.97-4.95,5.49-6.7,0-.9-2.91-3.74-5.49-2.84-.56,.15-1.28,.59-2.05,1.13-1.54,1.37-2.89,2.1-4.04,2.22-7.26,1.16-11.73-4.48-11.66-11.37-.01-7.01,3.86-12.06,9.51-12.04Z" fill="#231815" stroke="#231815" stroke-miterlimit="10" stroke-width="3"/><path d="M161.01,37.41c2.64-.18,4.89,1.25,6.69,3.38,1.02,1.38,3.05,1.54,4.65,.54,.91-.66,1.55-1.45,1.65-2.5,.17-1.93-.6-3.57-2.01-5.01-3.1-2.57-6.8-3.91-11.13-3.92-8-.28-15.06,5.05-17.08,12.11-1.6,4.84-1.58,9.92,.04,15.22,1.95,5.3,5.23,8.31,9.37,9.88,4.96,1.9,11.87,1.72,16.06-.1,3.75-1.51,5.97-4.95,5.49-6.7,0-.9-2.91-3.74-5.49-2.84-.56,.15-1.28,.59-2.05,1.13-1.54,1.37-2.89,2.1-4.04,2.22-7.26,1.16-11.73-4.48-11.66-11.37-.01-7.01,3.86-12.06,9.51-12.04Z" fill="#fff"/></g><g><path d="M180.9,18.19v46.47c0,1.72,2.14,2.84,4.37,2.84,2,0,4.26-.91,4.37-2.84v-19.14c.01-2.83,.53-4.85,1.91-6.48,1.12-1.32,2.87-1.84,5.91-1.91,3.78-.12,6.01,1.58,6.48,4.9,.54,3.82,.13,12.27,.28,22.63,.07,1.75,1.79,2.84,4.44,2.84,2.3,0,4.3-1,4.3-2.84v-22.12c.01-6.9-3.58-10.47-8.1-12.11-6.86-2.04-12.21-.34-15.22,5.34V18.19c.04-1.47-1.52-2.84-4.3-2.84-2.38,0-4.41,1.07-4.44,2.84Z" fill="#231815" stroke="#231815" stroke-miterlimit="10" stroke-width="3"/><path d="M180.9,18.19v46.47c0,1.72,2.14,2.84,4.37,2.84,2,0,4.26-.91,4.37-2.84v-19.14c.01-2.83,.53-4.85,1.91-6.48,1.12-1.32,2.87-1.84,5.91-1.91,3.78-.12,6.01,1.58,6.48,4.9,.54,3.82,.13,12.27,.28,22.63,.07,1.75,1.79,2.84,4.44,2.84,2.3,0,4.3-1,4.3-2.84v-22.12c.01-6.9-3.58-10.47-8.1-12.11-6.86-2.04-12.21-.34-15.22,5.34V18.19c.04-1.47-1.52-2.84-4.3-2.84-2.38,0-4.41,1.07-4.44,2.84Z" fill="#fff"/></g><g><path d="M253.3,30.78c-.8-.44-1.7-.62-2.73-.65-1.21,0-2.21,.25-2.96,.78-.91,.76-1.57,1.7-1.58,2.74v2.84c-1.73-4.29-4.85-6.95-10.16-7.03-11.74,.2-15.92,8.63-15.92,19.48,.26,10.93,4.99,18.4,15.85,18.74,5.93,0,8.77-2.85,10.09-6.02-.08,2.83-.14,4.14,2.31,5.28,1.52,.41,4.59,.74,6.02-.91,.57-.66,.83-1.43,.9-2.27v-30.1c0-1.17-.91-2.23-1.81-2.87Zm-7.75,23.49c-1.17,4.49-3.95,6.41-8.02,6.23-2.52-.13-4.48-1.06-5.94-2.71-2.18-2.7-2.72-6.9-2.21-12.48,.44-3.97,2.82-8,7.63-8.35,3.07-.14,5.15,.91,6.38,2.48,2.47,2.97,3.44,9.12,2.16,14.83Z" fill="#231815" stroke="#231815" stroke-miterlimit="10" stroke-width="3"/><path d="M253.3,30.78c-.8-.44-1.7-.62-2.73-.65-1.21,0-2.21,.25-2.96,.78-.91,.76-1.57,1.7-1.58,2.74v2.84c-1.73-4.29-4.85-6.95-10.16-7.03-11.74,.2-15.92,8.63-15.92,19.48,.26,10.93,4.99,18.4,15.85,18.74,5.93,0,8.77-2.85,10.09-6.02-.08,2.83-.14,4.14,2.31,5.28,1.52,.41,4.59,.74,6.02-.91,.57-.66,.83-1.43,.9-2.27v-30.1c0-1.17-.91-2.23-1.81-2.87Zm-7.75,23.49c-1.17,4.49-3.95,6.41-8.02,6.23-2.52-.13-4.48-1.06-5.94-2.71-2.18-2.7-2.72-6.9-2.21-12.48,.44-3.97,2.82-8,7.63-8.35,3.07-.14,5.15,.91,6.38,2.48,2.47,2.97,3.44,9.12,2.16,14.83Z" fill="#fff"/></g><g><path d="M74.39,54.6c2.56-4.53,4.01-9.64,4.01-15.04,0-18.75-17.37-33.96-38.81-33.96S.79,20.8,.79,39.56s17.37,33.96,38.81,33.96c6.55,0,12.73-1.42,18.14-3.93l18.32,1.82-3.87-13.15,2.21-3.65Zm-16.27-6.09c-.21,.35-.32,.59-.55,.92-10.19-6.51-13.63,.36-7.6,7.08-3.41,2.28-5.78,2.52-10.37,2.52-11.26,0-20.38-8.1-20.38-18.1s9.13-18.1,20.38-18.1,20.38,8.1,20.38,18.1c0,3.04-.36,5.06-1.85,7.58Z" fill="#fff" stroke="#231815" stroke-miterlimit="10" stroke-width="1.57"/><ellipse cx="16.15" cy="21.86" rx="8.68" ry="13.4" fill="#fff" stroke="#231815" stroke-miterlimit="10" stroke-width="1.57"/><ellipse cx="13.29" cy="21.86" rx="5.11" ry="6.3" fill="#231815"/><ellipse cx="35.61" cy="20.7" rx="8.68" ry="13.4" fill="#fff" stroke="#231815" stroke-miterlimit="10" stroke-width="1.57"/><ellipse cx="32.75" cy="20.7" rx="5.11" ry="6.3" fill="#231815"/><path d="M9.05,6.57c2.57-4.36,5.27-4.91,8.14-.98" fill="none" stroke="#231815" stroke-miterlimit="10" stroke-width=".79"/><path d="M30.16,4.02c2.57-4.36,5.27-4.91,8.14-.98" fill="none" stroke="#231815" stroke-miterlimit="10" stroke-width=".79"/></g></svg>