<svg width="94" height="93" viewBox="0 0 94 93" fill="none" xmlns="http://www.w3.org/2000/svg">
<circle cx="46.7314" cy="46.4194" r="46.4194" fill="#F47500"/>
<mask id="mask0_71_8" style="mask-type:alpha" maskUnits="userSpaceOnUse" x="25" y="32" width="43" height="29">
<path d="M32.5098 36.9383L27.7692 42.6933C27.7692 42.6933 29.5232 49.2969 34.406 54.0043C43.7828 63.0426 57.4773 57.1359 62.8493 53.0562C67.9283 48.9129 65.4253 48.0009 63.7974 48.3156L59.0568 49.2637C67.6514 35.7048 65.2906 34.2571 62.8493 35.0421L54.3163 38.8345C48.8466 41.8467 46.2574 40.2567 44.8352 38.8345L41.9909 35.9902C37.7244 32.1978 33.4863 35.8385 32.5098 36.9383Z" fill="white" stroke="white" stroke-width="3.79244" stroke-linecap="round" stroke-linejoin="round"/>
<path d="M37.2503 44.5231C38.2976 44.5231 39.1466 43.6742 39.1466 42.6269C39.1466 41.5797 38.2976 40.7307 37.2503 40.7307C36.2031 40.7307 35.3541 41.5797 35.3541 42.6269C35.3541 43.6742 36.2031 44.5231 37.2503 44.5231Z" fill="black"/>
</mask>
<g mask="url(#mask0_71_8)">
<path d="M23.9768 23.6648H69.486V69.174H23.9768V23.6648Z" fill="#545454"/>
</g>
</svg>
