<svg width="94" height="93" viewBox="0 0 94 93" fill="none" xmlns="http://www.w3.org/2000/svg">
<circle cx="47.0434" cy="46.4194" r="46.4194" fill="#D200F4"/>
<path d="M56.5245 50.2118C58.3495 50.2051 60.1338 49.6717 61.6632 48.6758L62.2131 48.3155C62.5186 48.1085 62.8042 47.8736 63.0664 47.614L63.4646 47.2347C63.7984 46.8943 64.1028 46.5264 64.3748 46.1349L64.4886 45.9832C64.7957 45.5303 65.0561 45.0474 65.2661 44.5421C65.3343 44.4014 65.3914 44.2556 65.4367 44.1059C65.5942 43.7183 65.721 43.3189 65.816 42.9113L65.9297 42.4373C66.0016 41.8714 66.027 41.3007 66.0056 40.7307V27.4572L60.3169 33.1458H52.732L47.0434 27.4572V40.7307C47.0434 43.2452 48.0423 45.6568 49.8203 47.4348C51.5984 49.2129 54.0099 50.2118 56.5245 50.2118ZM60.3169 36.9382C60.692 36.9382 61.0586 37.0495 61.3704 37.2578C61.6822 37.4662 61.9253 37.7623 62.0688 38.1088C62.2123 38.4553 62.2499 38.8366 62.1767 39.2044C62.1035 39.5722 61.9229 39.9101 61.6578 40.1753C61.3926 40.4405 61.0547 40.6211 60.6869 40.6942C60.319 40.7674 59.9378 40.7299 59.5913 40.5863C59.2448 40.4428 58.9486 40.1998 58.7403 39.8879C58.5319 39.5761 58.4207 39.2095 58.4207 38.8345C58.4207 38.3316 58.6205 37.8492 58.9761 37.4936C59.3317 37.138 59.814 36.9382 60.3169 36.9382ZM52.732 36.9382C53.1071 36.9382 53.4737 37.0495 53.7855 37.2578C54.0974 37.4662 54.3404 37.7623 54.4839 38.1088C54.6274 38.4553 54.665 38.8366 54.5918 39.2044C54.5187 39.5722 54.3381 39.9101 54.0729 40.1753C53.8077 40.4405 53.4698 40.6211 53.102 40.6942C52.7342 40.7674 52.3529 40.7299 52.0064 40.5863C51.6599 40.4428 51.3638 40.1998 51.1554 39.8879C50.947 39.5761 50.8358 39.2095 50.8358 38.8345C50.8358 38.3316 51.0356 37.8492 51.3912 37.4936C51.7468 37.138 52.2291 36.9382 52.732 36.9382Z" fill="#545454"/>
<path d="M45.1472 65.3815V55.9004H39.4585V65.3815H33.7699V46.2297C32.8054 46.0896 31.8838 45.7382 31.0709 45.2006C30.2579 44.6631 29.5738 43.9526 29.0673 43.1199C28.455 42.1117 28.1152 40.9617 28.0812 39.7826C28.1156 38.8392 28.3426 37.9128 28.7483 37.0604C29.154 36.208 29.7298 35.4476 30.4402 34.8259C31.1506 34.2043 31.9808 33.7346 32.8795 33.4456C33.7782 33.1567 34.7265 33.0547 35.6661 33.1458C36.1721 33.1762 36.6787 33.099 37.1526 32.9191C37.6265 32.7393 38.0569 32.461 38.4153 32.1026C38.7737 31.7442 39.052 31.3138 39.2319 30.8399C39.4117 30.366 39.489 29.8593 39.4585 29.3534C39.4585 28.8505 39.6583 28.3682 40.0139 28.0125C40.3695 27.6569 40.8519 27.4572 41.3548 27.4572C41.8577 27.4572 42.34 27.6569 42.6956 28.0125C43.0512 28.3682 43.251 28.8505 43.251 29.3534C43.2798 30.3573 43.1033 31.3565 42.7323 32.2897C42.3613 33.223 41.8037 34.0707 41.0936 34.7808C40.3834 35.491 39.5357 36.0486 38.6025 36.4196C37.6692 36.7906 36.67 36.9671 35.6661 36.9382C32.234 36.9382 31.8737 39.1379 31.8737 39.8015C31.8737 40.4652 32.215 42.6269 35.6661 42.6269H45.3179C45.5964 44.2605 46.2284 45.8135 47.1697 47.1773C48.111 48.5411 49.3389 49.6829 50.7675 50.5227C52.1961 51.3625 53.7908 51.8801 55.4403 52.0393C57.0898 52.1985 58.7541 51.9954 60.3169 51.4443V65.3815H54.6283V55.9004H50.8359V65.3815H45.1472Z" fill="#545454"/>
</svg>
