<svg width="93" height="94" viewBox="0 0 93 94" fill="none" xmlns="http://www.w3.org/2000/svg">
<circle cx="46.4194" cy="47.384" r="46.4194" fill="#F4DC00"/>
<path d="M65.685 39.2114C65.685 40.8458 65.0358 42.4134 63.88 43.5691C62.7243 44.7248 61.1568 45.3741 59.5223 45.3741C56.86 45.3741 54.5922 43.6732 53.754 41.3314C52.6694 42.2927 51.2396 42.909 49.662 42.909C48.2815 42.909 46.9997 42.4407 45.9644 41.6765C44.929 42.4407 43.6718 42.909 42.2667 42.909C40.6891 42.909 39.2593 42.2927 38.1747 41.3314C37.3366 43.6732 35.0687 45.3741 32.4064 45.3741C30.772 45.3741 29.2045 44.7248 28.0487 43.5691C26.893 42.4134 26.2437 40.8458 26.2437 39.2114C26.2437 36.1547 28.4869 33.6157 31.4204 33.1473C31.2725 32.7282 31.1739 32.2845 31.1739 31.8161C31.1739 30.8355 31.5634 29.895 32.2569 29.2015C32.9503 28.5081 33.8908 28.1185 34.8715 28.1185C35.3645 28.1185 35.8329 28.2171 36.2519 28.3897C36.671 26.812 38.1008 25.6534 39.8017 25.6534C40.4179 25.6534 41.0342 25.826 41.4779 26.0725C42.2667 24.4209 43.9677 23.1884 45.9644 23.1884C47.9611 23.1884 49.662 24.4209 50.4508 26.0725C50.8945 25.826 51.5108 25.6534 52.1271 25.6534C53.828 25.6534 55.2577 26.812 55.6768 28.3897C56.0959 28.2171 56.5642 28.1185 57.0572 28.1185C58.0379 28.1185 58.9784 28.5081 59.6719 29.2015C60.3653 29.895 60.7549 30.8355 60.7549 31.8161C60.7549 32.2845 60.6563 32.7282 60.5084 33.1473C63.4418 33.6157 65.685 36.1547 65.685 39.2114ZM41.0342 47.8392C40.3804 47.8392 39.7534 48.0989 39.2911 48.5612C38.8288 49.0235 38.5691 49.6505 38.5691 50.3043C38.5691 50.9581 38.8288 51.5851 39.2911 52.0473C39.7534 52.5096 40.3804 52.7694 41.0342 52.7694C41.688 52.7694 42.315 52.5096 42.7773 52.0473C43.2396 51.5851 43.4993 50.9581 43.4993 50.3043C43.4993 49.6505 43.2396 49.0235 42.7773 48.5612C42.315 48.0989 41.688 47.8392 41.0342 47.8392ZM50.8945 47.8392C50.2408 47.8392 49.6138 48.0989 49.1515 48.5612C48.6892 49.0235 48.4295 49.6505 48.4295 50.3043C48.4295 50.9581 48.6892 51.5851 49.1515 52.0473C49.6138 52.5096 50.2408 52.7694 50.8945 52.7694C51.5483 52.7694 52.1753 52.5096 52.6376 52.0473C53.0999 51.5851 53.3596 50.9581 53.3596 50.3043C53.3596 49.6505 53.0999 49.0235 52.6376 48.5612C52.1753 48.0989 51.5483 47.8392 50.8945 47.8392ZM66.252 44.536C64.6744 46.5327 62.2586 47.8392 59.5223 47.8392C58.413 47.8392 57.3531 47.5927 56.3424 47.1736C56.3177 53.4596 55.4056 61.052 52.0038 64.9715C50.722 66.4259 49.169 67.2147 47.1969 67.4613V62.6297H44.7318V67.4613C42.7598 67.2147 41.2068 66.4506 39.9249 64.9715C36.4985 61.0274 35.5864 53.4842 35.5617 47.1983C34.5757 47.5927 33.5157 47.8392 32.4064 47.8392C29.6702 47.8392 27.2544 46.5327 25.6767 44.536C23.4828 46.7299 21.3135 47.8392 21.3135 47.8392C21.3135 47.8392 23.7786 52.7694 28.7088 52.7694C29.5962 52.7694 30.2864 52.6708 30.8781 52.5475C31.7162 61.9641 35.0687 72.49 45.9644 72.49C56.86 72.49 60.2126 61.9641 61.0507 52.5475C61.6423 52.6708 62.3325 52.7694 63.22 52.7694C68.1501 52.7694 70.6152 47.8392 70.6152 47.8392C70.6152 47.8392 68.4459 46.7299 66.252 44.536Z" fill="#545454"/>
</svg>
