<svg width="94" height="94" viewBox="0 0 94 94" fill="none" xmlns="http://www.w3.org/2000/svg">
<circle cx="46.7314" cy="47.384" r="46.4194" fill="#98F400"/>
<path d="M22.9816 50.3489C22.9816 50.4937 22.9531 50.6371 22.8977 50.7708C22.8423 50.9046 22.7611 51.0261 22.6587 51.1285C22.5563 51.2309 22.4348 51.3121 22.301 51.3675C22.1673 51.4229 22.0239 51.4515 21.8791 51.4515C21.7343 51.4515 21.5909 51.4229 21.4572 51.3675C21.3234 51.3121 21.2019 51.2309 21.0995 51.1285C20.9971 51.0261 20.9159 50.9046 20.8605 50.7708C20.8051 50.6371 20.7766 50.4937 20.7766 50.3489C20.7766 50.0565 20.8927 49.7761 21.0995 49.5693C21.3062 49.3625 21.5867 49.2464 21.8791 49.2464C22.1715 49.2464 22.4519 49.3625 22.6587 49.5693C22.8655 49.7761 22.9816 50.0565 22.9816 50.3489ZM53.0805 42.4401C51.3904 42.8699 49.4594 43.146 47.3145 43.146C45.1655 43.146 43.2324 42.8678 41.5401 42.4401L37.0656 51.7297C39.9621 52.7596 43.4525 53.5278 47.3145 53.5278C51.1724 53.5278 54.6606 52.7596 57.5551 51.7338L53.0805 42.4401Z" fill="#545454"/>
<path d="M25.5625 44.2382C23.3774 43.9601 21.1713 44.5614 19.4296 45.9099C17.6878 47.2584 16.5531 49.2435 16.275 51.4286C15.9969 53.6137 16.5982 55.8198 17.9467 57.5616C19.2952 59.3033 21.2803 60.4381 23.4654 60.7162V62.8714C23.4654 63.6975 23.7936 64.4897 24.3776 65.0737C24.9617 65.6578 25.7539 65.986 26.58 65.986H36.9327C37.7587 65.986 38.5509 65.6578 39.135 65.0737C39.7191 64.4897 40.0472 63.6975 40.0472 62.8714V59.7091H54.5444V62.8714C54.5444 63.6975 54.8725 64.4897 55.4566 65.0737C56.0407 65.6578 56.8329 65.986 57.6589 65.986H68.0137C68.8397 65.986 69.6319 65.6578 70.216 65.0737C70.8001 64.4897 71.1282 63.6975 71.1282 62.8714V60.7473H73.6988C74.5708 60.7473 75.6588 60.2137 76.1219 59.1755C76.3918 58.5775 76.3503 57.938 76.1945 57.4251C76.0343 56.8912 75.7296 56.4119 75.3142 56.0402C75.0795 55.8326 73.9853 54.7923 72.9201 53.7708L71.5082 52.4149L71.0099 51.9373C69.9883 39.6017 59.7622 30.2332 47.1193 30.2332C37.3023 30.2332 29.1692 35.9182 25.5625 44.2382ZM24.7943 46.2626C23.9723 48.7753 23.5566 51.4032 23.563 54.0469C23.563 55.0062 23.5381 55.9489 23.5132 56.8915L23.4924 57.6805H23.4654V58.6149C21.9196 58.3308 20.5383 57.4729 19.5984 56.2131C18.6586 54.9533 18.2298 53.3848 18.3979 51.8221C18.566 50.2594 19.3187 48.818 20.5049 47.787C21.6912 46.7559 23.2234 46.2114 24.7943 46.2626ZM35.5913 37.2201C36.7749 38.4057 40.9401 41.0697 47.3145 41.0697C53.6889 41.0697 57.8541 38.4057 59.0376 37.2201C59.2325 37.0252 59.4969 36.9156 59.7726 36.9156C60.0483 36.9156 60.3127 37.0252 60.5077 37.2201C60.7026 37.415 60.8121 37.6794 60.8121 37.9551C60.8121 38.2308 60.7026 38.4952 60.5077 38.6902C59.6211 39.5747 57.7648 40.862 55.0884 41.8255L59.4944 50.9739C62.2476 49.7883 64.2804 48.4449 65.3269 47.5479C65.4305 47.4593 65.5506 47.3919 65.6802 47.3497C65.8098 47.3075 65.9465 47.2912 66.0825 47.3018C66.2184 47.3124 66.3509 47.3497 66.4724 47.4115C66.5939 47.4733 66.7021 47.5585 66.7907 47.6621C66.8793 47.7657 66.9467 47.8858 66.9889 48.0154C67.0311 48.1451 67.0474 48.2817 67.0368 48.4177C67.0262 48.5536 66.9889 48.6861 66.9271 48.8076C66.8653 48.9292 66.7801 49.0373 66.6765 49.1259C64.0998 51.3352 56.737 55.6042 47.3145 55.6042C37.8899 55.6042 30.5292 51.3352 27.9524 49.1259C27.8488 49.0373 27.7637 48.9292 27.7018 48.8076C27.64 48.6861 27.6028 48.5536 27.5922 48.4177C27.5816 48.2817 27.5978 48.1451 27.64 48.0154C27.6823 47.8858 27.7496 47.7657 27.8382 47.6621C27.9268 47.5585 28.035 47.4733 28.1565 47.4115C28.2781 47.3497 28.4106 47.3124 28.5465 47.3018C28.6824 47.2912 28.8191 47.3075 28.9487 47.3497C29.0784 47.3919 29.1984 47.4593 29.3021 47.5479C30.3485 48.4449 32.3751 49.7841 35.1262 50.9697L39.5302 41.8234C36.86 40.86 35.0058 39.5726 34.1213 38.6881C33.9266 38.4931 33.8174 38.2289 33.8176 37.9534C33.8178 37.6779 33.9274 37.4137 34.1223 37.2191C34.3173 37.0244 34.5816 36.9151 34.8571 36.9153C35.1325 36.9155 35.3967 37.0252 35.5913 37.2201ZM71.2009 58.6689V55.002L71.4833 55.272C72.5215 56.2686 73.6655 57.3566 73.9479 57.6037C74.0704 57.7195 74.1599 57.8656 74.2075 58.0273C74.2635 58.21 74.2345 58.3118 74.2282 58.3284C74.1765 58.4318 74.0948 58.5173 73.9936 58.5734C73.905 58.6302 73.8037 58.6644 73.6988 58.673H71.2009V58.6689ZM25.5418 59.7569H37.9709V62.8714C37.9709 63.1468 37.8615 63.4108 37.6668 63.6055C37.4721 63.8002 37.208 63.9096 36.9327 63.9096H26.58C26.3046 63.9096 26.0405 63.8002 25.8458 63.6055C25.6512 63.4108 25.5418 63.1468 25.5418 62.8714V59.7569ZM56.6207 59.7569H69.0519V62.8714C69.0519 63.1468 68.9425 63.4108 68.7478 63.6055C68.5531 63.8002 68.289 63.9096 68.0137 63.9096H57.6589C57.3835 63.9096 57.1195 63.8002 56.9248 63.6055C56.7301 63.4108 56.6207 63.1468 56.6207 62.8714V59.7569Z" fill="#545454"/>
</svg>
