<svg width="94" height="94" viewBox="0 0 94 94" fill="none" xmlns="http://www.w3.org/2000/svg">
<circle cx="47.0434" cy="47.384" r="46.4194" fill="#F43B00"/>
<path d="M40.2259 28.0907C38.0393 31.5359 36.9727 37.0468 39.2571 41.1533L37.8082 41.971C37.2127 40.9133 36.8127 39.8022 36.5727 38.6645C33.5062 38.1045 30.4023 37.9978 27.2416 38.4778C30.2699 39.3756 31.932 40.5844 34.0573 42.6288C31.6734 43.491 28.7019 45.3131 25.7972 48.8685C28.9499 48.0863 31.5596 47.8463 33.7462 48.3085C30.4628 50.3085 28.0522 53.295 25.8941 58.4503C29.085 56.9215 31.6618 56.7793 35.0439 56.7793C32.9933 59.6858 31.9089 63.6412 31.8165 66.8055C33.9951 64.4945 36.9372 61.4547 39.5682 59.7836C39.8348 62.4413 40.9014 64.9656 42.7591 67.3655C42.7414 63.4635 43.6747 59.517 45.5679 55.5082C43.8969 56.3082 42.688 57.1171 41.1325 58.1126C41.6836 55.6327 42.2347 53.1528 42.7947 50.6729C40.7237 50.8862 39.3282 51.5617 37.4171 52.3173C38.866 49.3752 40.3237 46.4419 41.7814 43.4998L43.2747 44.2376L40.7503 49.3396C42.3858 48.9485 43.3013 48.9752 44.8124 49.2241C44.4124 51.0373 44.0124 52.8417 43.6036 54.6461C49.4078 51.4284 56.7852 50.5662 63.7538 50.2018C64.4294 49.0552 64.9805 48.0508 65.4249 47.1086L64.8649 44.9398L62.6961 47.6774L62.0028 45.2331L60.0029 47.8286L59.3362 45.5086L57.2119 48.3085L56.5275 45.802L54.412 48.593L54.5187 44.9398L56.5275 41.1444L57.203 43.6598L59.3274 40.86L60.0029 43.3665L62.0917 40.7L62.6694 43.091L64.8471 40.3533L65.5404 42.7976L67.727 39.9533C67.9314 38.9934 68.1359 37.9623 68.3848 36.7801C63.4516 36.4512 58.9363 37.2068 54.6964 37.6512C51.3188 35.8024 47.5145 35.2691 43.8613 36.0068C42.6525 33.3678 41.4436 30.7288 40.2259 28.0907ZM53.2209 38.7C52.821 39.9622 52.0654 40.3266 51.0255 40.5311C49.5944 40.14 48.51 39.1534 47.9678 37.8467C49.7811 37.509 51.7366 38.149 53.2209 38.7Z" fill="#545454"/>
</svg>
